<svg width="20" height="20" viewBox="0 0 20 20" fill="none" xmlns="http://www.w3.org/2000/svg">
<path fill-rule="evenodd" clip-rule="evenodd" d="M9.68666 2.7045C12.4229 1.57995 15.355 1 18.3182 1H18.4204C18.7405 1 19 1.25949 19 1.57959V16.2659C19 16.6713 18.6713 17 18.2659 17H17.3145C15.1599 17 13.0175 17.2954 10.9468 17.8765C10.898 18.18 10.8044 18.3871 10.6247 18.5309C10.2494 18.8311 9.68659 18.7045 8.56098 18.4512L6.55556 18L2.64569 17.2962C1.85898 17.1546 1.46563 17.0838 1.23281 16.8054C1 16.5269 1 16.1272 1 15.3279V3.39214C1 2.28317 1 1.72868 1.35858 1.42888C1.71715 1.12909 2.26287 1.22732 3.35431 1.42377L6.55556 2L9.68666 2.7045ZM11 4.33629C12.9246 3.60917 14.9469 3.17295 17 3.042V15.0019C14.9739 15.0269 12.9598 15.2925 11 15.792V4.33629ZM9 4.6V16.5L6.95241 16.0393L3 15.3279V3.39214L6.1587 3.96071L9 4.6Z" fill="white"/>
</svg>
