<svg width="20" height="20" viewBox="0 0 20 20" fill="none" xmlns="http://www.w3.org/2000/svg">
<path fill-rule="evenodd" clip-rule="evenodd" d="M1.01098 5.24825C1.0037 5.16614 1.01732 5 1.01732 5C1.06413 3.44656 1.23738 2.51998 1.87868 1.87868C2.75736 1 4.17157 1 7 1H13C15.8284 1 17.2426 1 18.1213 1.87868C18.7626 2.51998 18.9359 3.44656 18.9827 5C18.9827 5 18.9963 5.16614 18.989 5.24825C19 5.76331 19 6.34357 19 7V10C19 12.8284 19 14.2426 18.1213 15.1213C17.2426 16 15.8284 16 13 16H7C4.17157 16 2.75736 16 1.87868 15.1213C1 14.2426 1 12.8284 1 10V7C1 6.34357 1 5.76331 1.01098 5.24825ZM13 3H7C5.52925 3 4.62738 3.00425 3.97468 3.092C3.40099 3.16913 3.30519 3.27883 3.29383 3.29185L3.29289 3.29289L3.29185 3.29383C3.27884 3.3052 3.16913 3.40099 3.092 3.97468C3.04907 4.29398 3.02613 4.6729 3.01389 5.1489C3.05505 5.36744 3.18564 5.56178 3.378 5.682L7.35001 8.16451C8.14077 8.65873 8.66991 8.98797 9.10653 9.20146C9.52216 9.40469 9.7758 9.46226 10 9.46226C10.2242 9.46226 10.4778 9.40469 10.8935 9.20146C11.3301 8.98797 11.8592 8.65873 12.65 8.16451L16.622 5.682C16.8144 5.56178 16.9449 5.36744 16.9861 5.1489C16.9739 4.6729 16.9509 4.29398 16.908 3.97468C16.8309 3.40099 16.7212 3.3052 16.7082 3.29383L16.7071 3.29289L16.7062 3.29185C16.6948 3.27883 16.599 3.16913 16.0253 3.092C15.3726 3.00425 14.4708 3 13 3ZM17 10V7.80424L13.6671 9.88733C12.9304 10.3478 12.3132 10.7335 11.772 10.9982C11.1993 11.2782 10.6362 11.4623 10 11.4623C9.36381 11.4623 8.80066 11.2782 8.22799 10.9982C7.68682 10.7336 7.06966 10.3478 6.33308 9.88743L3 7.80424V10C3 11.4708 3.00425 12.3726 3.092 13.0253C3.16913 13.599 3.27883 13.6948 3.29184 13.7062L3.29289 13.7071L3.29383 13.7082C3.30519 13.7212 3.40099 13.8309 3.97468 13.908C4.62738 13.9958 5.52925 14 7 14H13C14.4708 14 15.3726 13.9958 16.0253 13.908C16.599 13.8309 16.6948 13.7212 16.7062 13.7082L16.7071 13.7071L16.7082 13.7062C16.7212 13.6948 16.8309 13.599 16.908 13.0253C16.9958 12.3726 17 11.4708 17 10Z" fill="#12141D"/>
<path d="M15 19C16.1046 19 17 18.1046 17 17H3C3 18.1046 3.89543 19 5 19H15Z" fill="#12141D"/>
</svg>
