<svg width="20" height="20" viewBox="0 0 20 20" fill="none" xmlns="http://www.w3.org/2000/svg">
<path fill-rule="evenodd" clip-rule="evenodd" d="M11.3737 10.6904C10.4844 11.5038 9.30015 12 8 12C5.23858 12 3 9.76142 3 7C3 4.23858 5.23858 2 8 2C10.2932 2 12.2258 3.54379 12.8153 5.64878C13.4433 5.2385 14.1938 5 15 5C17.2091 5 19 6.79086 19 9C19 11.2091 17.2091 13 15 13C13.3949 13 12.0107 12.0546 11.3737 10.6904ZM11 7C11 8.65685 9.65685 10 8 10C6.34315 10 5 8.65685 5 7C5 5.34315 6.34315 4 8 4C9.65685 4 11 5.34315 11 7ZM17 9C17 10.1046 16.1046 11 15 11C13.8954 11 13 10.1046 13 9C13 7.89543 13.8954 7 15 7C16.1046 7 17 7.89543 17 9Z" fill="white"/>
<path d="M10.8706 15.5C8.62107 15.004 6.30311 15.004 4.05355 15.5C3.70744 15.5763 3.41604 15.8153 3.25084 16.1436C2.94319 16.755 2.80952 17.134 2.77905 17.2203C2.77507 17.2316 2.77224 17.2391 2.77224 17.2391C2.76844 17.2463 3.00295 16.8241 3.07036 16.7028C3.09728 16.6543 3.09746 16.654 3.04453 16.7493L2.61243 17.5273C2.52753 17.6801 2.40462 17.8037 2.25794 17.8836C1.58107 18.2522 0.825433 17.5666 1.03586 16.7747L1.26171 15.9248C1.57154 14.6497 2.519 13.6769 3.70572 13.4152C6.21683 12.8616 8.8043 12.8616 11.3154 13.4152C11.6474 13.4884 11.9607 13.6173 12.2466 13.7929C14.0794 13.2775 15.6018 13.4585 17.4564 14.0216C18.2116 14.2508 18.7738 14.885 18.911 15.6622L19.1342 16.9273C19.2733 17.7153 18.4057 18.2898 17.7345 17.8543C17.5548 17.7376 17.4217 17.5617 17.3584 17.357L16.9414 16.0097C16.9352 15.9745 16.9097 15.9457 16.8754 15.9353C15.6877 15.5748 14.7269 15.389 13.6427 15.5378C13.6882 15.6632 13.7272 15.7924 13.7594 15.9248L13.9691 16.7879C14.1639 17.5894 13.3998 18.2666 12.7191 17.8958C12.5583 17.8082 12.4258 17.6692 12.3394 17.4975L12.1501 17.1217L12.1552 17.1314C12.1452 17.1118 11.9806 16.7848 11.9277 16.6797L12.1501 17.1217C12.1285 17.0804 12.0456 16.9225 11.9212 16.6668C11.8558 16.5325 11.7789 16.371 11.6934 16.1853C11.5324 15.8356 11.2312 15.5795 10.8706 15.5Z" fill="white"/>
</svg>
